# xmcd
#
# Track frame offsets:
# 150
# 9205
# 34071
# 50531
# 61322
# 76776
# 89080
# 120980
# 138317
# 146101
# 154350
#
# Disc length: 2261 seconds
#
#
# Revision: 6
# Processed by: cddbd v1.5.1PL2 Copyright (c) Steve Scherf et al.
# Submitted via: FreeRIP 2.941 
#
DISCID=8c08d30b
DTITLE=Various Artist - Caetano and Chico - Juntos E Ao Vivo
DYEAR=1990
DGENRE=MPB
TTITLE0=Chico Buarque - Bom Conselho
TTITLE1=Caetano Veloso - Partido Alto
TTITLE2=Caetano Veloso - Tropicália
TTITLE3=Caetano Veloso - Morena Dos Olhos D'Água
TTITLE4=Caetano Veloso - A Rita - Esse Cara
TTITLE5=Chico Buarque - Atrás Da Porta
TTITLE6=Chico and Caetano - Você  Não Entende Nada - Cotidiano
TTITLE7=Chico and Caetano - Bárbara
TTITLE8=Chico Buarque - Ana De Amsterdam
TTITLE9=Chico Buarque - Janelas Abertas Nº2
TTITLE10=Caetano Veloso - Os Argonautas
EXTD=YEAR: 1972
EXTT0=
EXTT1=
EXTT2=
EXTT3=
EXTT4=Esse Cara
EXTT5=
EXTT6=Cotidiano
EXTT7=
EXTT8=
EXTT9=
EXTT10=
PLAYORDER=
